<?xml version="1.0" encoding="UTF-8" standalone="no"?>
<!-- Created with Inkscape (http://www.inkscape.org/) -->

<svg
   width="210mm"
   height="297mm"
   viewBox="0 0 210 297"
   version="1.1"
   id="svg1"
   inkscape:export-filename="saltybox.png"
   inkscape:export-xdpi="961.97998"
   inkscape:export-ydpi="961.97998"
   inkscape:version="1.4.2 (ebf0e940d0, 2025-05-08)"
   sodipodi:docname="saltybox.svg"
   xmlns:inkscape="http://www.inkscape.org/namespaces/inkscape"
   xmlns:sodipodi="http://sodipodi.sourceforge.net/DTD/sodipodi-0.dtd"
   xmlns:xlink="http://www.w3.org/1999/xlink"
   xmlns="http://www.w3.org/2000/svg"
   xmlns:svg="http://www.w3.org/2000/svg">
  <sodipodi:namedview
     id="namedview1"
     pagecolor="#ffffff"
     bordercolor="#666666"
     borderopacity="1.0"
     inkscape:showpageshadow="2"
     inkscape:pageopacity="0.0"
     inkscape:pagecheckerboard="0"
     inkscape:deskcolor="#d1d1d1"
     inkscape:document-units="mm"
     inkscape:zoom="2.0810325"
     inkscape:cx="483.65414"
     inkscape:cy="370.96969"
     inkscape:window-width="2548"
     inkscape:window-height="1381"
     inkscape:window-x="4"
     inkscape:window-y="4"
     inkscape:window-maximized="1"
     inkscape:current-layer="layer1" />
  <defs
     id="defs1">
    <linearGradient
       id="linearGradient1"
       inkscape:collect="always">
      <stop
         style="stop-color:#7f9c80;stop-opacity:1;"
         offset="0"
         id="stop1" />
      <stop
         style="stop-color:#39863c;stop-opacity:1;"
         offset="1"
         id="stop2" />
    </linearGradient>
    <linearGradient
       inkscape:collect="always"
       xlink:href="#linearGradient1"
       id="linearGradient2"
       x1="55.098095"
       y1="106.25833"
       x2="178.00675"
       y2="106.25833"
       gradientUnits="userSpaceOnUse" />
  </defs>
  <g
     inkscape:label="Layer 1"
     inkscape:groupmode="layer"
     id="layer1">
    <rect
       style="fill:url(#linearGradient2);fill-opacity:1;stroke-width:0.897;stroke-dashoffset:1.20189;stroke-dasharray:none"
       id="rect1"
       width="122.90865"
       height="39.605705"
       x="55.098095"
       y="86.455475" />
    <path
       style="font-size:25.4px;line-height:1.25;font-family:'Tinos Nerd Font';-inkscape-font-specification:'Tinos Nerd Font';stroke-width:0.346239"
       d="m 59.31538,113.73897 h 0.703642 l 0.378885,4.40425 q 0.400536,1.14365 1.374811,2.01965 0.9851,0.87597 1.937724,0.87597 1.515539,0 2.35991,-1.72764 0.855197,-1.75198 0.855197,-4.81792 0,-1.75197 -0.335583,-2.89562 -0.324759,-1.14365 -0.866023,-1.92229 -0.530438,-0.80299 -1.21243,-1.33832 -0.681993,-0.55967 -1.407287,-1.11932 -0.714468,-0.55967 -1.39646,-1.24098 -0.681993,-0.68133 -1.223257,-1.72764 -0.530438,-1.04632 -0.866022,-2.5793 -0.324758,-1.55731 -0.324758,-3.820253 0,-3.893279 1.299033,-6.107576 1.299033,-2.214297 3.604818,-2.214297 1.753694,0 3.810497,1.046315 v 6.788893 h -0.703643 l -0.378885,-3.990604 q -1.104178,-1.800637 -2.727969,-1.800637 -1.450587,0 -2.273308,1.33831 -0.811896,1.313986 -0.811896,3.649938 0,1.581637 0.324758,2.627972 0.335584,1.046319 0.866022,1.800629 0.541264,0.72999 1.223256,1.26531 0.692818,0.53532 1.407286,1.11932 0.725294,0.55965 1.407287,1.28964 0.692817,0.70566 1.223256,1.82498 0.541264,1.09497 0.866022,2.70095 0.335584,1.58164 0.335584,3.91761 0,4.72058 -1.288208,7.32421 -1.288208,2.57929 -3.713071,2.57929 -1.169129,0 -2.349085,-0.46234 -1.179955,-0.46231 -2.100103,-1.2653 z m 15.81573,7.49454 v 1.28964 h -4.773948 v -1.28964 l 1.645443,-0.65698 4.947151,-30.951515 h 2.056803 l 5.142007,30.951515 1.840297,0.65698 v 1.28964 h -6.137932 v -1.28964 l 1.94855,-0.65698 -1.439762,-9.41686 h -5.715747 l -1.461412,9.41686 z m 2.327435,-28.10455 -2.489814,15.84075 h 5.055404 z M 92.98199,91.182323 90.741159,91.81498 v 28.61554 h 2.857873 q 2.305783,0 3.388308,-0.48667 l 0.671171,-6.78888 h 0.703646 L 98.1673,122.52315 H 86.789932 v -1.28964 l 1.861948,-0.65698 V 91.81498 l -1.861948,-0.632657 v -1.289645 h 6.192058 z m 8.08648,31.340827 v -1.28964 l 2.30579,-0.65698 V 91.98531 h -0.55209 q -2.7388,0 -3.745542,0.486659 l -0.292291,5.085589 h -0.725286 v -7.66488 h 12.773819 v 7.66488 h -0.73611 l -0.29229,-5.085589 q -0.32475,-0.170338 -1.41811,-0.291995 -1.09335,-0.14599 -2.39238,-0.14599 h -0.53045 v 28.542546 l 2.30579,0.65698 v 1.28964 z m 19.20405,-12.84778 v 10.90116 l 2.30579,0.65698 v 1.28964 h -6.70086 v -1.28964 l 2.30579,-0.65698 v -10.75517 l -5.09871,-18.00638 -1.63462,-0.632657 v -1.289645 h 6.13794 v 1.289645 l -1.94854,0.632657 4.16772,15.0621 3.96205,-15.0621 -1.8403,-0.632657 v -1.289645 h 4.71983 v 1.289645 l -1.59133,0.632657 z m 17.30961,-11.87449 q 0,-2.992955 -0.83354,-4.355593 -0.83356,-1.362644 -2.70632,-1.362644 h -2.24084 v 12.336807 h 2.37075 q 1.75368,0 2.57641,-1.55731 0.83354,-1.55731 0.83354,-5.06126 z m 1.09335,15.42709 q 0,-3.43094 -1.01757,-5.0126 -1.01757,-1.60596 -3.25841,-1.60596 h -2.59807 v 13.72377 q 1.4939,0.14597 3.18263,0.14597 1.85113,0 2.77128,-1.75197 0.92014,-1.7763 0.92014,-5.49925 z m -10.82526,9.29518 v -1.28964 l 1.86193,-0.65698 V 91.81498 l -1.86193,-0.632657 v -1.289645 h 6.63588 q 2.76045,0 4.03784,1.849303 1.27737,1.824971 1.27737,5.815577 0,2.871272 -0.79024,4.890922 -0.77942,2.01962 -2.19753,2.70095 1.95937,0.46232 3.03107,2.5793 1.07171,2.09263 1.07171,5.40191 0,4.69625 -1.45059,7.12954 -1.43976,2.40898 -4.21103,2.40898 l -4.63322,-0.14597 z m 17.32043,-16.35173 q 0,7.85953 1.16913,11.3878 1.16914,3.52828 3.65895,3.52828 2.47899,0 3.65895,-3.52828 1.17994,-3.52827 1.17994,-11.3878 0,-7.81087 -1.17994,-11.241833 -1.16914,-3.455269 -3.65895,-3.455269 -2.50064,0 -3.66977,3.455269 -1.15831,3.430963 -1.15831,11.241833 z m -2.26247,0 q 0,-16.643736 7.09055,-16.643736 3.50738,0 5.30438,4.23393 1.797,4.209604 1.797,12.409806 0,8.32186 -1.81864,12.58013 -1.81866,4.25826 -5.28274,4.25826 -3.45326,0 -5.27191,-4.23394 -1.81864,-4.25826 -1.81864,-12.60445 z m 18.53287,14.40511 1.79699,0.65698 v 1.28964 h -4.74147 v -1.28964 l 1.60215,-0.65698 4.93632,-14.74579 -4.21103,-14.01576 -1.63462,-0.632657 v -1.289645 h 5.98638 v 1.289645 l -1.8403,0.632657 3.00943,10.07385 3.36666,-10.07385 -1.797,-0.632657 v -1.289645 h 4.7523 v 1.289645 l -1.60214,0.632657 -4.08113,12.21513 4.99045,16.54642 1.64545,0.65698 v 1.28964 h -5.98638 v -1.28964 l 1.84029,-0.65698 -3.8105,-12.65314 z"
       id="text1"
       aria-label="SALTYBOX" />
    <text
       xml:space="preserve"
       style="font-size:25.4436px;line-height:1.25;font-family:Helmet;-inkscape-font-specification:Helmet;fill:#000000;fill-opacity:1;stroke-width:0.265037"
       x="56.34634"
       y="113.34929"
       id="text1-5"
       transform="scale(1.0017173,0.99828564)"><tspan
         sodipodi:role="line"
         id="tspan1-9"
         style="font-weight:normal;font-size:25.4436px;fill:#000000;fill-opacity:1;stroke-width:0.265037"
         x="56.34634"
         y="113.34929">SALTYBOX</tspan></text>
  </g>
</svg>
